<svg xmlns="http://www.w3.org/2000/svg" width="30.925" height="28.378" viewBox="0 0 30.925 28.378">
  <g id="surface1" transform="translate(-98.296 -98.269)">
    <path id="Path_17778" data-name="Path 17778"
          d="M343.721,365.63a3.2,3.2,0,1,1-3.2-3.2A3.2,3.2,0,0,1,343.721,365.63Zm0,0"
          transform="translate(-226.758 -250.609)"/>
    <path id="Path_17780" data-name="Path 17780"
          d="M240.662,257.2a7.009,7.009,0,0,0-.75-1.812.641.641,0,0,1,.1-.778l1.083-1.084-1.812-1.813-1.084,1.084a.641.641,0,0,1-.779.1,7,7,0,0,0-1.812-.75.64.64,0,0,1-.481-.62v-1.534h-2.563v1.534a.64.64,0,0,1-.481.62,7,7,0,0,0-1.812.75.641.641,0,0,1-.779-.1l-1.084-1.084-1.812,1.813,1.084,1.084a.641.641,0,0,1,.1.778,7.08,7.08,0,0,0-.333.641,7,7,0,0,0-.417,1.175.64.64,0,0,1-.62.481h-1.534v2.563h1.534a.64.64,0,0,1,.62.481,7.012,7.012,0,0,0,.75,1.812.641.641,0,0,1-.1.778L226.6,264.4l1.812,1.813,1.084-1.084a.641.641,0,0,1,.779-.1,6.991,6.991,0,0,0,1.812.75.641.641,0,0,1,.481.62v1.531h2.563V266.4a.64.64,0,0,1,.481-.62,6.992,6.992,0,0,0,1.812-.75.641.641,0,0,1,.779.1l1.084,1.084,1.812-1.813-1.083-1.084a.641.641,0,0,1-.1-.779,7.016,7.016,0,0,0,.75-1.812.64.64,0,0,1,.62-.48h1.534v-2.563h-1.534A.64.64,0,0,1,240.662,257.2Zm-6.816,6.247a4.485,4.485,0,1,1,4.485-4.485A4.485,4.485,0,0,1,233.846,263.444Zm0,0"
          transform="translate(-120.087 -143.938)"/>
    <path id="Path_17781" data-name="Path 17781"
          d="M129.053,99.541a1.281,1.281,0,0,0-1.29-1.272l-28.193.185a1.282,1.282,0,0,0-1.273,1.29l.168,25.63a1.282,1.282,0,0,0,1.29,1.272l28.193-.185a1.281,1.281,0,0,0,1.273-1.291Zm-24.264.1h1.282v1.282h-1.282Zm-2.563,0h1.282v1.282h-1.282Zm-2.563,0h1.282v1.282H99.662Zm0,5.767h5.126v1.281H99.662Zm23.708,12.174h-1.694a8.146,8.146,0,0,1-.507,1.224l1.2,1.2a.642.642,0,0,1,0,.906l-2.719,2.719a.641.641,0,0,1-.906,0l-1.2-1.2a8.288,8.288,0,0,1-1.224.506v1.694a.641.641,0,0,1-.641.641h-3.844a.641.641,0,0,1-.641-.641v-1.694a8.279,8.279,0,0,1-1.224-.506l-1.2,1.2a.641.641,0,0,1-.906,0l-2.719-2.719a.641.641,0,0,1,0-.906l1.2-1.2a8.179,8.179,0,0,1-.507-1.224h-1.694a.641.641,0,0,1-.641-.641V113.1a.641.641,0,0,1,.641-.641h1.694a8.293,8.293,0,0,1,.352-.907c.049-.106.1-.211.154-.317l-1.2-1.2a.641.641,0,0,1,0-.906l2.719-2.719a.641.641,0,0,1,.906,0l1.2,1.2a8.29,8.29,0,0,1,1.224-.506V105.41a.641.641,0,0,1,.641-.641h3.844a.641.641,0,0,1,.641.641V107.1a8.3,8.3,0,0,1,1.224.506l1.2-1.2a.641.641,0,0,1,.906,0l2.719,2.719a.642.642,0,0,1,0,.906l-1.2,1.2a8.127,8.127,0,0,1,.507,1.224h1.694a.641.641,0,0,1,.641.641v3.845A.641.641,0,0,1,123.37,117.584Zm4.485,7.689h-3.845v-1.282h3.845Zm0-21.786H99.662v-1.282h28.193Zm0,0"
          transform="translate(0 0)"/>
  </g>
</svg>
