<svg xmlns="http://www.w3.org/2000/svg" width="30.9" height="37.258" viewBox="0 0 30.9 37.258">
  <g id="Group_13535" data-name="Group 13535" transform="translate(-1872.098 -76.313)">
    <path id="Union_118" data-name="Union 118" d="M3762.009,17493.359a1.453,1.453,0,0,1-1.546-1.33v-29.275a1.45,1.45,0,0,1,1.546-1.326h4.633v1.326h-3.087a1.453,1.453,0,0,0-1.546,1.332v26.609a1.452,1.452,0,0,0,1.546,1.334h24.717a1.452,1.452,0,0,0,1.546-1.334v-26.609a1.453,1.453,0,0,0-1.546-1.332h-3.087v-1.326h4.633a1.45,1.45,0,0,1,1.546,1.326v29.275a1.453,1.453,0,0,1-1.546,1.33Zm1.546-2.664v-26.609h3.232a2.319,2.319,0,0,0,2.174,1.332h13.9a2.32,2.32,0,0,0,2.174-1.332h3.232v26.609Zm3.087-4.656a.725.725,0,0,0,.773.666h7.725a.673.673,0,1,0,0-1.33h-7.725A.726.726,0,0,0,3766.643,17486.039Zm0-3.324a.726.726,0,0,0,.773.666h17a.673.673,0,1,0,0-1.332h-17A.728.728,0,0,0,3766.643,17482.715Zm0-3.328a.726.726,0,0,0,.773.666h17a.673.673,0,1,0,0-1.332h-17A.726.726,0,0,0,3766.643,17479.387Zm0-3.324a.725.725,0,0,0,.773.664h17a.673.673,0,1,0,0-1.33h-17A.726.726,0,0,0,3766.643,17476.063Zm0-3.33a.728.728,0,0,0,.773.668h17a.674.674,0,1,0,0-1.334h-17A.728.728,0,0,0,3766.643,17472.732Zm0-3.324a.726.726,0,0,0,.773.666h17a.673.673,0,1,0,0-1.332h-17A.726.726,0,0,0,3766.643,17469.408Zm2.319-5.322a.726.726,0,0,1-.773-.666v-2.662a.726.726,0,0,1,.773-.662h2.319a.726.726,0,0,0,.773-.666,3.9,3.9,0,0,1,7.721,0,.726.726,0,0,0,.773.666h2.319a.726.726,0,0,1,.773.662v2.662a.726.726,0,0,1-.773.666Zm6.4-5.795a.85.85,0,0,0-.163.219.579.579,0,0,0-.062.254.782.782,0,0,0,1.546,0,.524.524,0,0,0-.062-.254.849.849,0,0,0-.162-.219.9.9,0,0,0-1.1,0Z" transform="translate(-1888.365 -17379.789)" fill="#d6dade"/>
  </g>
</svg>
