<svg id="Group_13536" data-name="Group 13536" xmlns="http://www.w3.org/2000/svg" width="30.625" height="30.625" viewBox="0 0 30.625 30.625">
  <g id="Group_13452" data-name="Group 13452">
    <g id="Group_13451" data-name="Group 13451">
      <path id="Path_19687" data-name="Path 19687" d="M329.69,17.043h3.6l-4.151-4.151v3.6A.549.549,0,0,0,329.69,17.043Z" transform="translate(-309.455 -12.121)" fill="#d6dade"/>
      <path id="Path_19688" data-name="Path 19688" d="M101.539,20.06l.76,2.795a1.651,1.651,0,0,0,1.586,1.209h11.966a1.651,1.651,0,0,0,1.586-1.209l.76-2.795a2.723,2.723,0,0,1,.968-1.438V6.016H114.79a1.646,1.646,0,0,1-1.641-1.641V0H101.118a.549.549,0,0,0-.547.547V18.621A2.723,2.723,0,0,1,101.539,20.06Zm1.22-14.044h3.828a.547.547,0,1,1,0,1.094h-3.828a.547.547,0,0,1,0-1.094Zm0,2.188h14.219a.547.547,0,1,1,0,1.094H102.759a.547.547,0,0,1,0-1.094Zm0,2.188h14.219a.547.547,0,1,1,0,1.094H102.759a.547.547,0,0,1,0-1.094Zm0,2.188h14.219a.547.547,0,1,1,0,1.094H102.759a.547.547,0,0,1,0-1.094Zm0,3.281h3.828a.547.547,0,1,1,0,1.094h-3.828a.547.547,0,0,1,0-1.094Z" transform="translate(-94.555)" fill="#d6dade"/>
      <path id="Path_19689" data-name="Path 19689" d="M166.913,457.143H155.975a.547.547,0,0,0,0,1.094h10.938a.547.547,0,0,0,0-1.094Z" transform="translate(-146.131 -429.799)" fill="#d6dade"/>
      <path id="Path_19690" data-name="Path 19690" d="M26.283,320a1.651,1.651,0,0,0-1.586,1.209L23.937,324a2.747,2.747,0,0,1-2.641,2.013H9.33A2.747,2.747,0,0,1,6.688,324l-.76-2.795A1.651,1.651,0,0,0,4.342,320H0v8.75a2.735,2.735,0,0,0,2.734,2.734H27.891a2.735,2.735,0,0,0,2.734-2.734V320Zm-5.5,10.391H9.844a1.641,1.641,0,1,1,0-3.281H20.782a1.641,1.641,0,0,1,0,3.281Z" transform="translate(0 -300.859)" fill="#d6dade"/>
    </g>
  </g>
</svg>
