<svg xmlns="http://www.w3.org/2000/svg" width="30.324" height="30.324" viewBox="0 0 30.324 30.324">
  <g id="Group_13535" data-name="Group 13535" transform="translate(-1872.675 -144.43)">
    <g id="webshop_1_" data-name="webshop (1)" transform="translate(1872.675 144.43)">
      <path id="Path_19662" data-name="Path 19662" d="M30.324,5.33V1.777A1.779,1.779,0,0,0,28.547,0H1.777A1.779,1.779,0,0,0,0,1.777V5.33ZM27.659,1.77a.888.888,0,1,1-.888.888A.89.89,0,0,1,27.659,1.77Zm-3.554,0a.888.888,0,1,1-.888.888A.89.89,0,0,1,24.105,1.77Zm-3.554,0a.888.888,0,1,1-.888.888A.89.89,0,0,1,20.552,1.77Z" fill="#d6dade"/>
      <rect id="Rectangle_12308" data-name="Rectangle 12308" width="2.961" height="2.665" transform="translate(5.33 22.213)" fill="#d6dade"/>
      <rect id="Rectangle_12309" data-name="Rectangle 12309" width="2.961" height="2.665" transform="translate(5.33 12.559)" fill="#d6dade"/>
      <path id="Path_19663" data-name="Path 19663" d="M0,120v22.329a.888.888,0,0,0,.888.888H29.436a.888.888,0,0,0,.888-.888V120Zm12.734,4.089h6.632a.888.888,0,0,1,0,1.777H12.734a.888.888,0,1,1,0-1.777Zm-2.665,14.57a.888.888,0,0,1-.888.888H4.442a.888.888,0,0,1-.888-.888v-4.442a.888.888,0,0,1,.888-.888H9.18a.888.888,0,0,1,.888.888Zm0-9.654a.888.888,0,0,1-.888.888H4.442A.888.888,0,0,1,3.554,129v-4.442a.888.888,0,0,1,.888-.888H9.18a.888.888,0,0,1,.888.888Zm13.622,10.128H12.734a.888.888,0,1,1,0-1.777H23.691a.888.888,0,1,1,0,1.777Zm-11.845-4.5a.888.888,0,0,1,.888-.888h6.632a.888.888,0,0,1,0,1.777H12.734A.888.888,0,0,1,11.845,134.632Zm11.845-5.153H12.734a.888.888,0,1,1,0-1.777H23.691a.888.888,0,1,1,0,1.777Z" transform="translate(0 -112.893)" fill="#d6dade"/>
    </g>
  </g>
</svg>
