<svg xmlns="http://www.w3.org/2000/svg" width="30.209" height="32.553" viewBox="0 0 30.209 32.553">
  <g id="Solid" transform="translate(-64 -35.64)">
    <path id="Path_17772" data-name="Path 17772"
          d="M146.168,464H128.586a.586.586,0,0,0,0,1.172h17.582a.586.586,0,0,0,0-1.172Z"
          transform="translate(-59.312 -396.979)"/>
    <path id="Path_17773" data-name="Path 17773" d="M189.388,408l-1.256,2.93h9.944L196.82,408Z"
          transform="translate(-115.038 -345.082)"/>
    <path id="Path_17774" data-name="Path 17774"
          d="M64,345.758a1.76,1.76,0,0,0,1.758,1.758H90.373a1.76,1.76,0,0,0,1.758-1.758V344H64Zm13.479-.586h1.172v1.172H77.479Z"
          transform="translate(0 -285.77)"/>
    <path id="Path_17775" data-name="Path 17775"
          d="M91.675,105.09a.586.586,0,0,1-.375.562l-1.823.7a.586.586,0,0,1-.655-.165l-1.039-1.212-1.017-.026-1.1,1.157a.586.586,0,0,1-.663.132l-1.785-.793a.586.586,0,0,1-.346-.58l.122-1.591-.7-.738-1.6.041a.589.589,0,0,1-.562-.375l-.7-1.823a.586.586,0,0,1,.165-.655l1.211-1.039.026-1.017-1.157-1.1A.585.585,0,0,1,79.516,96H65.758A1.76,1.76,0,0,0,64,97.758V113H92.131v-9.974l-.5.472Zm-8.921,3.218v1.172h-16.5v-1.172Zm-3.516-1.484H66.257v-1.172h12.98Z"
          transform="translate(0 -55.938)"/>
    <path id="Path_17776" data-name="Path 17776" d="M346.051,87.058a3,3,0,1,0,2.8,1.922A3,3,0,0,0,346.051,87.058Z"
          transform="translate(-258.612 -47.651)"/>
    <path id="Path_17777" data-name="Path 17777"
          d="M303.833,43.314l.039-1.538a.586.586,0,0,1,.2-.43l1.1-.939-.4-1.051-1.442.037a.583.583,0,0,1-.44-.182l-1.06-1.115a.586.586,0,0,1-.159-.449l.11-1.438-1.029-.457-.994,1.046a.578.578,0,0,1-.44.182l-1.538-.039a.586.586,0,0,1-.43-.2l-.939-1.1-1.051.4.037,1.442a.587.587,0,0,1-.182.44l-1.115,1.06a.587.587,0,0,1-.449.16l-1.438-.11-.457,1.029,1.046.994a.586.586,0,0,1,.182.44l-.039,1.538a.586.586,0,0,1-.2.43l-1.1.939.4,1.051,1.442-.037a.582.582,0,0,1,.44.182l1.06,1.115a.586.586,0,0,1,.159.449l-.11,1.438,1.029.457.994-1.046a.586.586,0,0,1,.425-.182h.015l1.538.039a.586.586,0,0,1,.43.2l.939,1.1,1.051-.4-.037-1.442a.586.586,0,0,1,.182-.44l1.115-1.06a.585.585,0,0,1,.449-.16l1.439.11.457-1.029-1.046-.994A.586.586,0,0,1,303.833,43.314ZM299.9,46.3a4.153,4.153,0,1,1,2.322-2.2,4.171,4.171,0,0,1-2.322,2.2Z"
          transform="translate(-210.964 0)"/>
  </g>
</svg>
