<svg id="Page-1" xmlns="http://www.w3.org/2000/svg" width="31" height="29.667" viewBox="0 0 31 29.667">
  <g id="_005---Folder-Settings" data-name="005---Folder-Settings" transform="translate(0)">
    <path id="Union_25" data-name="Union 25" d="M0,3.674A3.674,3.674,0,1,1,3.675,7.347,3.678,3.678,0,0,1,0,3.674Z" transform="translate(5.734 17.916)" fill="#d6dade"/>
    <path id="Shape" d="M13.389,33.214a6.122,6.122,0,0,0,.665-1.6.475.475,0,0,1,.31-.333l1.791-.6V29.47l-1.793-.6a.475.475,0,0,1-.31-.333,6.122,6.122,0,0,0-.665-1.6.475.475,0,0,1-.016-.455l.846-1.692-.86-.86-1.692.846a.475.475,0,0,1-.455-.016,6.122,6.122,0,0,0-1.6-.665.475.475,0,0,1-.333-.31L8.685,22H7.47l-.6,1.793a.475.475,0,0,1-.333.31,6.122,6.122,0,0,0-1.6.665.475.475,0,0,1-.455.016L2.8,23.938l-.859.858.846,1.692a.475.475,0,0,1-.016.455,6.122,6.122,0,0,0-.665,1.6.475.475,0,0,1-.31.333L0,29.47v1.215l1.793.6a.475.475,0,0,1,.31.333,6.122,6.122,0,0,0,.665,1.6.475.475,0,0,1,.016.455L1.938,35.36l.86.86,1.692-.846a.475.475,0,0,1,.455.016,6.122,6.122,0,0,0,1.6.665.475.475,0,0,1,.333.31l.6,1.79H8.685l.6-1.793a.475.475,0,0,1,.333-.31,6.122,6.122,0,0,0,1.6-.665.475.475,0,0,1,.455-.016l1.692.846.86-.86-.846-1.692a.475.475,0,0,1,.016-.452ZM8.078,35.3A5.227,5.227,0,1,1,13.3,30.078,5.227,5.227,0,0,1,8.078,35.3Z" transform="translate(1.333 -8.488)" fill="#d6dade"/>
    <path id="Shape-2" data-name="Shape" d="M28.233,7.2S12,7.347,11.774,7.2,11.5,6.5,11.6,6.089a.847.847,0,0,1,.554-.554l15.528-.067V4.982a1.661,1.661,0,0,0-1.661-1.661H16.054a.554.554,0,0,1-.554-.554V1.661A1.661,1.661,0,0,0,13.84,0H1.661A1.661,1.661,0,0,0,0,1.661V19.714l1.459-.486a8.244,8.244,0,0,1,.66-1.59l-.854-1.707a1.107,1.107,0,0,1,.208-1.278l1-1a1.1,1.1,0,0,1,1.278-.208l1.707.854a8.244,8.244,0,0,1,1.59-.66l.6-1.81A1.107,1.107,0,0,1,8.7,11.072h1.416a1.107,1.107,0,0,1,1.052.757l.6,1.81a8.244,8.244,0,0,1,1.59.66l1.707-.854a1.107,1.107,0,0,1,1.278.208l1,1a1.107,1.107,0,0,1,.208,1.278L16.7,17.638a8.244,8.244,0,0,1,.66,1.59l1.81.6a1.107,1.107,0,0,1,.756,1.051V22.3a1.107,1.107,0,0,1-.757,1.052l-1.81.6a8.244,8.244,0,0,1-.66,1.59l.854,1.707a1.107,1.107,0,0,1-.208,1.278l-.26.259H28.233A2.771,2.771,0,0,0,31,26.018V9.964A2.771,2.771,0,0,0,28.233,7.2ZM9.5,7.284H7.281c-.306,0-.6-.567-.6-.873s.3-.875.6-.875H9.5c.306,0,.5.57.5.875S9.8,7.284,9.5,7.284Z" transform="translate(0)" fill="#d6dade"/>
  </g>
</svg>
