<svg id="dashboard_1_" data-name="dashboard (1)" xmlns="http://www.w3.org/2000/svg" width="31" height="31" viewBox="0 0 31 31">
  <path id="Path_19294" data-name="Path 19294" d="M11.948,0H2.26A2.263,2.263,0,0,0,0,2.26V8.073a2.263,2.263,0,0,0,2.26,2.261h9.688a2.263,2.263,0,0,0,2.261-2.261V2.26A2.263,2.263,0,0,0,11.948,0Zm0,0" fill="#d6dade"/>
  <path id="Path_19295" data-name="Path 19295" d="M11.948,213.332H2.26A2.263,2.263,0,0,0,0,215.593v13.563a2.263,2.263,0,0,0,2.26,2.26h9.688a2.263,2.263,0,0,0,2.261-2.26V215.593A2.263,2.263,0,0,0,11.948,213.332Zm0,0" transform="translate(0 -200.415)" fill="#d6dade"/>
  <path id="Path_19296" data-name="Path 19296" d="M289.28,341.332h-9.687a2.263,2.263,0,0,0-2.261,2.261v5.813a2.263,2.263,0,0,0,2.261,2.26h9.688a2.263,2.263,0,0,0,2.26-2.26v-5.813A2.263,2.263,0,0,0,289.28,341.332Zm0,0" transform="translate(-260.54 -320.665)" fill="#d6dade"/>
  <path id="Path_19297" data-name="Path 19297" d="M289.28,0h-9.687a2.263,2.263,0,0,0-2.261,2.26V15.823a2.263,2.263,0,0,0,2.261,2.261h9.688a2.263,2.263,0,0,0,2.26-2.261V2.26A2.263,2.263,0,0,0,289.28,0Zm0,0" transform="translate(-260.54)" fill="#d6dade"/>
</svg>
