<svg id="Page-1" xmlns="http://www.w3.org/2000/svg" width="31" height="30.418" viewBox="0 0 31 30.418">
  <g id="_005---Folder-Settings" data-name="005---Folder-Settings" transform="translate(0)">
    <path id="Union_25" data-name="Union 25"
          d="M0,4.674A4.674,4.674,0,1,1,4.674,9.347,4.679,4.679,0,0,1,0,4.674Zm1.52.1A3.055,3.055,0,1,0,4.575,1.719,3.059,3.059,0,0,0,1.52,4.774ZM2.249,4.7a2.229,2.229,0,0,1,2.2-2.252,2.252,2.252,0,0,1,0,4.5A2.228,2.228,0,0,1,2.249,4.7Z"
          transform="translate(4.734 16.916)"/>
    <path id="Shape"
          d="M14.634,34.256a6.691,6.691,0,0,0,.727-1.747.519.519,0,0,1,.339-.364l1.957-.653V30.164L15.7,29.511a.519.519,0,0,1-.339-.364,6.691,6.691,0,0,0-.727-1.747.519.519,0,0,1-.018-.5l.924-1.849-.939-.939-1.849.924a.519.519,0,0,1-.5-.018,6.691,6.691,0,0,0-1.747-.727.519.519,0,0,1-.364-.339L9.493,22H8.164l-.653,1.959a.519.519,0,0,1-.364.339,6.691,6.691,0,0,0-1.747.727.519.519,0,0,1-.5.018l-1.849-.924-.939.937L3.041,26.9a.519.519,0,0,1-.018.5A6.691,6.691,0,0,0,2.3,29.148a.519.519,0,0,1-.339.364L0,30.164v1.328l1.959.653a.519.519,0,0,1,.339.364,6.691,6.691,0,0,0,.727,1.747.519.519,0,0,1,.018.5L2.118,36.6l.939.939,1.849-.924a.519.519,0,0,1,.5.018,6.691,6.691,0,0,0,1.747.727.519.519,0,0,1,.364.339l.651,1.957H9.493l.653-1.959a.519.519,0,0,1,.364-.339,6.691,6.691,0,0,0,1.747-.727.519.519,0,0,1,.5-.018l1.849.924.939-.939-.924-1.849a.519.519,0,0,1,.017-.494ZM8.829,36.541a5.713,5.713,0,1,1,5.713-5.713A5.713,5.713,0,0,1,8.829,36.541Z"
          transform="translate(0.582 -9.239)"/>
    <path id="Shape-2" data-name="Shape"
          d="M28.233,7.2H12.179a.554.554,0,0,1,0-1.107h15.5V4.982a1.661,1.661,0,0,0-1.661-1.661H16.054a.554.554,0,0,1-.554-.554V1.661A1.661,1.661,0,0,0,13.84,0H1.661A1.661,1.661,0,0,0,0,1.661V19.714l1.459-.486a8.244,8.244,0,0,1,.66-1.59l-.854-1.707a1.107,1.107,0,0,1,.208-1.278l1-1a1.1,1.1,0,0,1,1.278-.208l1.707.854a8.244,8.244,0,0,1,1.59-.66l.6-1.81A1.107,1.107,0,0,1,8.7,11.072h1.416a1.107,1.107,0,0,1,1.052.757l.6,1.81a8.244,8.244,0,0,1,1.59.66l1.707-.854a1.107,1.107,0,0,1,1.278.208l1,1a1.107,1.107,0,0,1,.208,1.278L16.7,17.638a8.244,8.244,0,0,1,.66,1.59l1.81.6a1.107,1.107,0,0,1,.756,1.051V22.3a1.107,1.107,0,0,1-.757,1.052l-1.81.6a8.244,8.244,0,0,1-.66,1.59l.854,1.707a1.107,1.107,0,0,1-.208,1.278l-.26.259H28.233A2.771,2.771,0,0,0,31,26.018V9.964A2.771,2.771,0,0,0,28.233,7.2ZM9.411,7.2H7.2a.554.554,0,1,1,0-1.107H9.411a.554.554,0,1,1,0,1.107Z"
          transform="translate(0)"/>
  </g>
</svg>
