<svg xmlns="http://www.w3.org/2000/svg" width="31" height="31" viewBox="0 0 31 31">
  <g id="Group_11040" data-name="Group 11040" transform="translate(-177 -405.999)">
    <g id="Group_10860" data-name="Group 10860" transform="translate(177 406)">
      <path id="Path_18034" data-name="Path 18034"
            d="M22.394,16.99l-2.067,2.067h0L6.049,4.778l1.1-1.1L2.6.014,0,2.61,3.667,7.16l1.1-1.1L19.043,20.341l-2.067,2.067,2.948,2.948,5.418-5.418Z"
            transform="translate(0 -0.014)"/>
      <path id="Path_18035" data-name="Path 18035"
            d="M355.7,350.3l-5.418,5.418,3.251,3.251a3.831,3.831,0,0,0,5.418-5.418Z"
            transform="translate(-329.075 -329.089)"/>
    </g>
    <g id="Group_11039" data-name="Group 11039">
      <path id="Path_18036" data-name="Path 18036"
            d="M15.689,257.117l-4.232-4.232-3.1,3.1a6.441,6.441,0,1,0,4.232,4.232Zm-7.774,6.49a2.085,2.085,0,1,1,0-2.948A2.084,2.084,0,0,1,7.915,263.607Z"
            transform="translate(177 168.426)"/>
      <g id="Group_10861" data-name="Group 10861" transform="translate(192.311 405.999)">
        <path id="Path_18037" data-name="Path 18037"
              d="M268.141,3.884l-.506-1.293-3.249,3.249-1.312-.352-.352-1.312L265.971.928,264.678.422a6.12,6.12,0,0,0-8.125,7.356l-3.68,3.68,4.232,4.232,3.68-3.68a6.12,6.12,0,0,0,7.356-8.125Z"
              transform="translate(-252.873 0.001)"/>
      </g>
    </g>
  </g>
</svg>
