<svg xmlns="http://www.w3.org/2000/svg" width="30.85" height="22.264" viewBox="0 0 30.85 22.264">
  <path id="Subtraction_18" data-name="Subtraction 18"
        d="M-6314.665-2808.737h-7.618a.99.99,0,0,1-.994-.983v-2.911a3.521,3.521,0,0,1,2.109-3.213l1.574-.7.275-.122c1.669-.741,1.735-.77,1.913-.77h1.235a.99.99,0,0,1,.965.748,1.634,1.634,0,0,0,1.63,1.256,1.629,1.629,0,0,0,1.631-1.256.99.99,0,0,1,.966-.748h.891a1.428,1.428,0,0,1,.7.087l3.409,1.5a3.521,3.521,0,0,1,2.109,3.213v2.911a.991.991,0,0,1-1,.983h-7.617a1.1,1.1,0,0,0,.058-.354,1.143,1.143,0,0,0-1.148-1.134,1.142,1.142,0,0,0-1.147,1.134,1.107,1.107,0,0,0,.057.354Zm1.089-4.512a1.142,1.142,0,0,0-1.147,1.134,1.142,1.142,0,0,0,1.147,1.134,1.143,1.143,0,0,0,1.148-1.134A1.143,1.143,0,0,0-6313.576-2813.249Zm14.43,1.528h-3.334a.619.619,0,0,1-.621-.615,4.22,4.22,0,0,0-1.088-3.135,3.6,3.6,0,0,0-1.1-.821.6.6,0,0,1-.316-.688.6.6,0,0,1,.6-.47l.561,0c.611,0,1.444.009,2.551.009.226,0,.246.009,1.292.474l1.012.449a2.4,2.4,0,0,1,1.436,2.189v1.622A.99.99,0,0,1-6299.146-2811.721Zm-25.526,0H-6328a.991.991,0,0,1-1-.983v-1.622a2.4,2.4,0,0,1,1.438-2.189l1-.445c1.075-.478,1.075-.478,1.3-.478,1.009,0,1.77,0,2.381-.007h.178l.542,0a.605.605,0,0,1,.6.47.6.6,0,0,1-.317.689,3.561,3.561,0,0,0-1.091.816,4.217,4.217,0,0,0-1.09,3.135.6.6,0,0,1-.177.431A.619.619,0,0,1-6324.672-2811.721Zm20.661-6.238a3.809,3.809,0,0,1-3.828-3.782,3.809,3.809,0,0,1,3.828-3.782,3.81,3.81,0,0,1,3.828,3.782A3.809,3.809,0,0,1-6304.011-2817.958Zm-19.13,0a3.808,3.808,0,0,1-3.826-3.782,3.808,3.808,0,0,1,3.826-3.782,3.81,3.81,0,0,1,3.828,3.782A3.809,3.809,0,0,1-6323.141-2817.958Zm9.591-.927c-3.447,0-5.763-3.431-5.763-6.636a5.289,5.289,0,0,1,1.624-3.981,6,6,0,0,1,4.139-1.5,5.838,5.838,0,0,1,4.113,1.5,5.319,5.319,0,0,1,1.6,3.981,7.359,7.359,0,0,1-1.6,4.56A5.27,5.27,0,0,1-6313.55-2818.886Z"
        transform="translate(6329.001 2831)"/>
</svg>
