<svg id="Component_79_3" data-name="Component 79 – 3" xmlns="http://www.w3.org/2000/svg" width="26" height="26"
     viewBox="0 0 26 26">
  <g id="Group_6763" data-name="Group 6763" transform="translate(-1737 -43)">
    <path id="Path_13088" data-name="Path 13088"
          d="M12.223,7.287a.132.132,0,0,0-.168,0L6.8,11.49a.141.141,0,0,0-.051.1v7.747a.068.068,0,0,0,.067.067h3.638a.068.068,0,0,0,.067-.067V14.626a.068.068,0,0,1,.067-.067h3.1a.068.068,0,0,1,.067.067v4.715a.068.068,0,0,0,.067.067h3.638a.068.068,0,0,0,.067-.067V11.594a.136.136,0,0,0-.051-.1Z"
          transform="translate(1737.867 42.603)"/>
    <path id="Path_13089" data-name="Path 13089"
          d="M17.208,8.636l-6.366-5.1a.739.739,0,0,0-.923,0L7.147,5.79V4.369A.068.068,0,0,0,7.079,4.3H5.058a.068.068,0,0,0-.067.067V7.474L3.553,8.656a.471.471,0,0,0-.04.7.469.469,0,0,0,.333.138.475.475,0,0,0,.3-.1l6.194-4.985A.06.06,0,0,1,10.38,4.4a.082.082,0,0,1,.044.013l6.194,4.965a.475.475,0,0,0,.3.1.478.478,0,0,0,.475-.5A.479.479,0,0,0,17.208,8.636Z"
          transform="translate(1739.626 44.625)"/>
  </g>
</svg>
