<svg id="logout" xmlns="http://www.w3.org/2000/svg" width="15" height="15" viewBox="0 0 17.407 17.407">
  <path id="Path_18040" data-name="Path 18040"
        d="M7.978,10.879a2.176,2.176,0,1,1,0-4.352H11.6V1.995A2,2,0,0,0,9.61,0H1.995A2,2,0,0,0,0,1.995V15.412a2,2,0,0,0,1.995,1.995H9.61A2,2,0,0,0,11.6,15.412V10.879Z"/>
  <path id="Path_18041" data-name="Path 18041"
        d="M16.25,14.2a.726.726,0,0,1-.447-.67V11.352H10.725a.725.725,0,1,1,0-1.451H15.8V7.725a.725.725,0,0,1,1.238-.513l2.9,2.9a.724.724,0,0,1,0,1.026l-2.9,2.9A.725.725,0,0,1,16.25,14.2Z"
        transform="translate(-2.747 -1.923)"/>
</svg>
