<svg id="Icon_ionic-md-settings" data-name="Icon ionic-md-settings" xmlns="http://www.w3.org/2000/svg" width="21" height="21" viewBox="0 0 21 21">
  <path id="Icon_ionic-md-settings-2" data-name="Icon ionic-md-settings" d="M21.849,14.925a6.566,6.566,0,0,0,.054-1.05c0-.368-.054-.682-.054-1.05L24.1,11.093a.482.482,0,0,0,.108-.682L22.063,6.787a.523.523,0,0,0-.644-.21l-2.685,1.05a7.815,7.815,0,0,0-1.825-1.05l-.376-2.782A.575.575,0,0,0,16,3.375H11.7a.575.575,0,0,0-.537.42l-.429,2.782a9.093,9.093,0,0,0-1.826,1.05L6.223,6.577a.5.5,0,0,0-.644.21L3.43,10.41a.634.634,0,0,0,.107.682l2.309,1.732c0,.368-.054.682-.054,1.05s.054.682.054,1.05L3.592,16.657a.482.482,0,0,0-.108.682l2.148,3.623a.523.523,0,0,0,.644.21l2.685-1.05a7.814,7.814,0,0,0,1.825,1.05l.429,2.782a.52.52,0,0,0,.537.42h4.3a.575.575,0,0,0,.537-.42l.43-2.782a9.088,9.088,0,0,0,1.825-1.05l2.685,1.05a.5.5,0,0,0,.644-.21l2.148-3.623a.633.633,0,0,0-.108-.682Zm-8,2.625a3.676,3.676,0,1,1,3.759-3.675A3.694,3.694,0,0,1,13.848,17.55Z" transform="translate(-3.375 -3.375)"/>
</svg>
