<svg xmlns="http://www.w3.org/2000/svg" width="33.699" height="33.699" viewBox="0 0 33.699 33.699">
  <path id="Subtraction_18" data-name="Subtraction 18" d="M43.677-2229.473a1.987,1.987,0,0,1-1.414-.586l-14.849-14.849a1.986,1.986,0,0,1-.586-1.414,1.987,1.987,0,0,1,.586-1.414l14.849-14.849a1.987,1.987,0,0,1,1.414-.586,1.987,1.987,0,0,1,1.414.586l14.849,14.849a1.987,1.987,0,0,1,.586,1.414,1.986,1.986,0,0,1-.586,1.414l-14.849,14.849A1.987,1.987,0,0,1,43.677-2229.473Zm.109-11.027a2,2,0,0,0-2,2,2,2,0,0,0,2,2,2,2,0,0,0,2-2A2,2,0,0,0,43.787-2240.5Zm0-14.326a1.484,1.484,0,0,0-1.482,1.483v9.545a1.484,1.484,0,0,0,1.482,1.482,1.484,1.484,0,0,0,1.482-1.482v-9.545A1.484,1.484,0,0,0,43.787-2254.826Z" transform="translate(-26.828 2263.172)"/>
</svg>
