<svg xmlns="http://www.w3.org/2000/svg" width="26" height="26" viewBox="0 0 26 26">
  <g id="Group_13231" data-name="Group 13231" transform="translate(-813 -25)">
    <g id="Group_13226" data-name="Group 13226">
      <g id="Group_9621" data-name="Group 9621" transform="translate(-677 -472)">
        <g id="Group_13225" data-name="Group 13225">
          <path id="Path_19637" data-name="Path 19637" d="M13,0A13,13,0,0,1,26,13c0,2.563-2.2,7.231-2.2,7.231S17.617,26,13,26A13,13,0,0,1,13,0Z" transform="translate(1490 497)" fill="#69ccc1"/>
        </g>
        <path id="Path_8" data-name="Path 8" d="M32.767,24.427l-5.1,6.121-2.641-2.641a1.186,1.186,0,1,0-1.678,1.678l3.56,3.56a1.189,1.189,0,0,0,.84.348H27.8a1.186,1.186,0,0,0,.858-.426l5.933-7.12a1.187,1.187,0,1,0-1.824-1.519Z" transform="translate(1474.303 481.611)" fill="#fff"/>
      </g>
    </g>
  </g>
</svg>
