<svg xmlns="http://www.w3.org/2000/svg" width="31.258" height="27.473" viewBox="0 0 31.258 27.473">
  <g id="Group_13229" data-name="Group 13229" transform="translate(-805.951 -22.5)">
    <g id="Group_13228" data-name="Group 13228">
      <g id="Group_12711" data-name="Group 12711" transform="translate(805.951 22.5)">
        <ellipse id="Ellipse_523" data-name="Ellipse 523" cx="1.672" cy="1.433" rx="1.672" ry="1.433" transform="translate(13.962 19.22)" fill="#d80812"/>
        <g id="Group_13227" data-name="Group 13227">
          <path id="Path_18649" data-name="Path 18649" d="M18,32.365a2.748,2.748,0,0,0-4.749,0L.375,54.341a2.747,2.747,0,0,0,2.373,4.132H28.511a2.748,2.748,0,0,0,2.374-4.13Z" transform="translate(0 -31)" fill="#fe9d2a"/>
        </g>
        <path id="Path_18957" data-name="Path 18957" d="M237.243,128.877A1.243,1.243,0,0,0,236,130.121v8.01a1.244,1.244,0,0,0,2.487,0v-8.01A1.244,1.244,0,0,0,237.243,128.877Z" transform="translate(-221.429 -120.098)" fill="#fff"/>
        <ellipse id="Ellipse_526" data-name="Ellipse 526" cx="1.679" cy="1.679" rx="1.679" ry="1.679" transform="translate(14.136 20.947)" fill="#fff"/>
      </g>
    </g>
  </g>
</svg>
